<svg width="23" height="23" viewBox="0 0 23 23" fill="none" xmlns="http://www.w3.org/2000/svg">
<path fill-rule="evenodd" clip-rule="evenodd" d="M13.0147 0.439341L22.5607 9.98528C23.1464 10.5711 23.1464 11.5208 22.5607 12.1066L13.0147 21.6525C12.4289 22.2383 11.4792 22.2383 10.8934 21.6525C10.3076 21.0668 10.3076 20.117 10.8934 19.5312L17.8787 12.5459L1.5 12.5459C0.671572 12.5459 -1.03809e-06 11.8744 -9.65667e-07 11.0459C-8.93243e-07 10.2175 0.671572 9.54594 1.5 9.54594L17.8787 9.54594L10.8934 2.56066C10.3076 1.97487 10.3076 1.02513 10.8934 0.439341C11.4792 -0.146446 12.4289 -0.146446 13.0147 0.439341Z" fill="#52503B"/>
</svg>
